<svg width="81" height="16" viewBox="0 0 81 16" fill="none" xmlns="http://www.w3.org/2000/svg">
<path d="M0.880682 12V0.363636H3.69318V9.71591H8.53409V12H0.880682ZM14.0696 12.1648C13.1567 12.1648 12.3688 11.9848 11.706 11.625C11.0469 11.2614 10.5393 10.7443 10.1832 10.0739C9.83097 9.39962 9.65483 8.59848 9.65483 7.67045C9.65483 6.76894 9.83286 5.98106 10.1889 5.30682C10.545 4.62879 11.0469 4.10227 11.6946 3.72727C12.3423 3.34848 13.1056 3.15909 13.9844 3.15909C14.6056 3.15909 15.1738 3.25568 15.6889 3.44886C16.2041 3.64205 16.6491 3.92803 17.0241 4.30682C17.3991 4.68561 17.6908 5.15341 17.8991 5.71023C18.1075 6.26326 18.2116 6.89773 18.2116 7.61364V8.30682H10.6264V6.69318H15.6264C15.6226 6.39773 15.5526 6.13447 15.4162 5.90341C15.2798 5.67235 15.0923 5.49242 14.8537 5.36364C14.6188 5.23106 14.348 5.16477 14.0412 5.16477C13.7306 5.16477 13.4522 5.23485 13.206 5.375C12.9598 5.51136 12.7647 5.69886 12.6207 5.9375C12.4768 6.17235 12.401 6.43939 12.3935 6.73864V8.38068C12.3935 8.73674 12.4635 9.04924 12.6037 9.31818C12.7438 9.58333 12.9427 9.78977 13.2003 9.9375C13.4579 10.0852 13.7647 10.1591 14.1207 10.1591C14.367 10.1591 14.5904 10.125 14.7912 10.0568C14.992 9.98864 15.1643 9.88826 15.3082 9.75568C15.4522 9.62311 15.5601 9.46023 15.6321 9.26705L18.1832 9.34091C18.0772 9.91288 17.8442 10.411 17.4844 10.8352C17.1283 11.2557 16.6605 11.5833 16.081 11.8182C15.5014 12.0492 14.831 12.1648 14.0696 12.1648ZM23.6989 15.4545C22.8693 15.4545 22.1591 15.339 21.5682 15.108C20.9773 14.8769 20.5133 14.5606 20.1761 14.1591C19.839 13.7576 19.6364 13.303 19.5682 12.7955L22.1989 12.6477C22.2481 12.8258 22.339 12.9811 22.4716 13.1136C22.608 13.2462 22.7841 13.3485 23 13.4205C23.2197 13.4924 23.4773 13.5284 23.7727 13.5284C24.2386 13.5284 24.6231 13.4148 24.9261 13.1875C25.233 12.964 25.3864 12.572 25.3864 12.0114V10.4773H25.2898C25.1799 10.7462 25.0133 10.9867 24.7898 11.1989C24.5663 11.411 24.2879 11.5777 23.9545 11.6989C23.625 11.8201 23.2462 11.8807 22.8182 11.8807C22.1818 11.8807 21.5985 11.733 21.0682 11.4375C20.5417 11.1383 20.1193 10.6761 19.8011 10.0511C19.4867 9.42235 19.3295 8.61364 19.3295 7.625C19.3295 6.60606 19.4924 5.76705 19.8182 5.10795C20.1439 4.44508 20.5701 3.95455 21.0966 3.63636C21.6269 3.31818 22.197 3.15909 22.8068 3.15909C23.2652 3.15909 23.6572 3.23864 23.983 3.39773C24.3125 3.55303 24.5833 3.75379 24.7955 4C25.0076 4.24621 25.1686 4.50189 25.2784 4.76705H25.358V3.27273H28.125V12.0341C28.125 12.7727 27.9394 13.3958 27.5682 13.9034C27.197 14.411 26.678 14.7955 26.0114 15.0568C25.3447 15.322 24.5739 15.4545 23.6989 15.4545ZM23.7841 9.85795C24.1212 9.85795 24.4091 9.76894 24.6477 9.59091C24.8864 9.41288 25.0701 9.1572 25.1989 8.82386C25.3277 8.49053 25.392 8.09091 25.392 7.625C25.392 7.15152 25.3277 6.74432 25.1989 6.40341C25.0739 6.05871 24.8902 5.79356 24.6477 5.60795C24.4091 5.42235 24.1212 5.32955 23.7841 5.32955C23.4394 5.32955 23.1477 5.42424 22.9091 5.61364C22.6705 5.80303 22.4886 6.07008 22.3636 6.41477C22.2424 6.75568 22.1818 7.15909 22.1818 7.625C22.1818 8.09091 22.2443 8.49053 22.3693 8.82386C22.4943 9.1572 22.6742 9.41288 22.9091 9.59091C23.1477 9.76894 23.4394 9.85795 23.7841 9.85795ZM32.3565 12.1477C31.7997 12.1477 31.3054 12.0549 30.8736 11.8693C30.4455 11.6799 30.1065 11.3958 29.8565 11.017C29.6103 10.6345 29.4872 10.1553 29.4872 9.57955C29.4872 9.0947 29.5724 8.68561 29.7429 8.35227C29.9134 8.01894 30.1482 7.74811 30.4474 7.53977C30.7467 7.33144 31.0914 7.17424 31.4815 7.06818C31.8717 6.95833 32.2884 6.88447 32.7315 6.84659C33.2277 6.80114 33.6274 6.75379 33.9304 6.70455C34.2334 6.65152 34.4531 6.57765 34.5895 6.48295C34.7296 6.38447 34.7997 6.24621 34.7997 6.06818V6.03977C34.7997 5.74811 34.6993 5.52273 34.4986 5.36364C34.2978 5.20455 34.027 5.125 33.6861 5.125C33.3187 5.125 33.0232 5.20455 32.7997 5.36364C32.5762 5.52273 32.4342 5.74242 32.3736 6.02273L29.8111 5.93182C29.8868 5.40152 30.0819 4.92803 30.3963 4.51136C30.7145 4.09091 31.1501 3.76136 31.7031 3.52273C32.2599 3.2803 32.9285 3.15909 33.7088 3.15909C34.2656 3.15909 34.7789 3.22538 35.2486 3.35795C35.7183 3.48674 36.1274 3.67614 36.4759 3.92614C36.8243 4.17235 37.0933 4.47538 37.2827 4.83523C37.4759 5.19508 37.5724 5.60606 37.5724 6.06818V12H34.9588V10.7841H34.8906C34.7353 11.0795 34.5365 11.3295 34.294 11.5341C34.0554 11.7386 33.7732 11.892 33.4474 11.9943C33.1255 12.0966 32.7618 12.1477 32.3565 12.1477ZM33.2145 10.3295C33.5137 10.3295 33.7827 10.2689 34.0213 10.1477C34.2637 10.0265 34.4569 9.85985 34.6009 9.64773C34.7448 9.43182 34.8168 9.18182 34.8168 8.89773V8.06818C34.7372 8.10985 34.6406 8.14773 34.527 8.18182C34.4171 8.21591 34.2959 8.24811 34.1634 8.27841C34.0308 8.30871 33.8944 8.33523 33.7543 8.35795C33.6141 8.38068 33.4796 8.40152 33.3509 8.42045C33.0895 8.46212 32.866 8.52652 32.6804 8.61364C32.4986 8.70076 32.3584 8.81439 32.2599 8.95455C32.1652 9.09091 32.1179 9.25379 32.1179 9.44318C32.1179 9.73106 32.2202 9.95076 32.4247 10.1023C32.633 10.2538 32.8963 10.3295 33.2145 10.3295ZM42.0497 0.363636V12H39.2713V0.363636H42.0497ZM43.8182 12V0.363636H51.9318V2.64773H46.6307V5.03409H51.517V7.32386H46.6307V9.71591H51.9318V12H43.8182ZM56.1534 12.1477C55.5966 12.1477 55.1023 12.0549 54.6705 11.8693C54.2424 11.6799 53.9034 11.3958 53.6534 11.017C53.4072 10.6345 53.2841 10.1553 53.2841 9.57955C53.2841 9.0947 53.3693 8.68561 53.5398 8.35227C53.7102 8.01894 53.9451 7.74811 54.2443 7.53977C54.5436 7.33144 54.8883 7.17424 55.2784 7.06818C55.6686 6.95833 56.0852 6.88447 56.5284 6.84659C57.0246 6.80114 57.4242 6.75379 57.7273 6.70455C58.0303 6.65152 58.25 6.57765 58.3864 6.48295C58.5265 6.38447 58.5966 6.24621 58.5966 6.06818V6.03977C58.5966 5.74811 58.4962 5.52273 58.2955 5.36364C58.0947 5.20455 57.8239 5.125 57.483 5.125C57.1155 5.125 56.8201 5.20455 56.5966 5.36364C56.3731 5.52273 56.2311 5.74242 56.1705 6.02273L53.608 5.93182C53.6837 5.40152 53.8788 4.92803 54.1932 4.51136C54.5114 4.09091 54.947 3.76136 55.5 3.52273C56.0568 3.2803 56.7254 3.15909 57.5057 3.15909C58.0625 3.15909 58.5758 3.22538 59.0455 3.35795C59.5152 3.48674 59.9242 3.67614 60.2727 3.92614C60.6212 4.17235 60.8902 4.47538 61.0795 4.83523C61.2727 5.19508 61.3693 5.60606 61.3693 6.06818V12H58.7557V10.7841H58.6875C58.5322 11.0795 58.3333 11.3295 58.0909 11.5341C57.8523 11.7386 57.5701 11.892 57.2443 11.9943C56.9223 12.0966 56.5587 12.1477 56.1534 12.1477ZM57.0114 10.3295C57.3106 10.3295 57.5795 10.2689 57.8182 10.1477C58.0606 10.0265 58.2538 9.85985 58.3977 9.64773C58.5417 9.43182 58.6136 9.18182 58.6136 8.89773V8.06818C58.5341 8.10985 58.4375 8.14773 58.3239 8.18182C58.214 8.21591 58.0928 8.24811 57.9602 8.27841C57.8277 8.30871 57.6913 8.33523 57.5511 8.35795C57.411 8.38068 57.2765 8.40152 57.1477 8.42045C56.8864 8.46212 56.6629 8.52652 56.4773 8.61364C56.2955 8.70076 56.1553 8.81439 56.0568 8.95455C55.9621 9.09091 55.9148 9.25379 55.9148 9.44318C55.9148 9.73106 56.017 9.95076 56.2216 10.1023C56.4299 10.2538 56.6932 10.3295 57.0114 10.3295ZM70.6875 5.9375L68.1364 6.00568C68.1098 5.82386 68.0379 5.66288 67.9205 5.52273C67.803 5.37879 67.6496 5.26705 67.4602 5.1875C67.2746 5.10417 67.0587 5.0625 66.8125 5.0625C66.4905 5.0625 66.2159 5.12689 65.9886 5.25568C65.7652 5.38447 65.6553 5.55871 65.6591 5.77841C65.6553 5.94886 65.7235 6.09659 65.8636 6.22159C66.0076 6.34659 66.2633 6.44697 66.6307 6.52273L68.3125 6.84091C69.1837 7.00758 69.8314 7.28409 70.2557 7.67045C70.6837 8.05682 70.8996 8.56818 70.9034 9.20455C70.8996 9.80303 70.7216 10.3239 70.3693 10.767C70.0208 11.2102 69.5436 11.5549 68.9375 11.8011C68.3314 12.0436 67.6383 12.1648 66.858 12.1648C65.6117 12.1648 64.6288 11.9091 63.9091 11.3977C63.1932 10.8826 62.7841 10.1932 62.6818 9.32955L65.4261 9.26136C65.4867 9.57955 65.6439 9.82197 65.8977 9.98864C66.1515 10.1553 66.4754 10.2386 66.8693 10.2386C67.2254 10.2386 67.5152 10.1723 67.7386 10.0398C67.9621 9.9072 68.0758 9.73106 68.0795 9.51136C68.0758 9.31439 67.9886 9.1572 67.8182 9.03977C67.6477 8.91856 67.3807 8.82386 67.017 8.75568L65.4943 8.46591C64.6193 8.30682 63.9678 8.01326 63.5398 7.58523C63.1117 7.15341 62.8996 6.60417 62.9034 5.9375C62.8996 5.35417 63.0549 4.85606 63.3693 4.44318C63.6837 4.02652 64.1307 3.70833 64.7102 3.48864C65.2898 3.26894 65.9735 3.15909 66.7614 3.15909C67.9432 3.15909 68.875 3.4072 69.5568 3.90341C70.2386 4.39583 70.6155 5.07386 70.6875 5.9375ZM76.3509 12.1648C75.438 12.1648 74.6501 11.9848 73.9872 11.625C73.3281 11.2614 72.8205 10.7443 72.4645 10.0739C72.1122 9.39962 71.9361 8.59848 71.9361 7.67045C71.9361 6.76894 72.1141 5.98106 72.4702 5.30682C72.8262 4.62879 73.3281 4.10227 73.9759 3.72727C74.6236 3.34848 75.3868 3.15909 76.2656 3.15909C76.8868 3.15909 77.455 3.25568 77.9702 3.44886C78.4853 3.64205 78.9304 3.92803 79.3054 4.30682C79.6804 4.68561 79.9721 5.15341 80.1804 5.71023C80.3887 6.26326 80.4929 6.89773 80.4929 7.61364V8.30682H72.9077V6.69318H77.9077C77.9039 6.39773 77.8338 6.13447 77.6974 5.90341C77.5611 5.67235 77.3736 5.49242 77.1349 5.36364C76.9001 5.23106 76.6293 5.16477 76.3224 5.16477C76.0118 5.16477 75.7334 5.23485 75.4872 5.375C75.241 5.51136 75.0459 5.69886 74.902 5.9375C74.758 6.17235 74.6823 6.43939 74.6747 6.73864V8.38068C74.6747 8.73674 74.7448 9.04924 74.8849 9.31818C75.0251 9.58333 75.224 9.78977 75.4815 9.9375C75.7391 10.0852 76.0459 10.1591 76.402 10.1591C76.6482 10.1591 76.8717 10.125 77.0724 10.0568C77.2732 9.98864 77.4455 9.88826 77.5895 9.75568C77.7334 9.62311 77.8414 9.46023 77.9134 9.26705L80.4645 9.34091C80.3584 9.91288 80.1255 10.411 79.7656 10.8352C79.4096 11.2557 78.9418 11.5833 78.3622 11.8182C77.7827 12.0492 77.1122 12.1648 76.3509 12.1648Z" fill="black"/>
</svg>